<svg xmlns="http://www.w3.org/2000/svg" viewBox="0 0 128 128">
  <rect x="18" y="16" width="92" height="96" rx="26" fill="#0F1420"/>
  <path d="M36 74c0-13.255 10.745-24 24-24h20c6.627 0 12 5.373 12 12v6c0 6.627-5.373 12-12 12H60c-13.255 0-24-10.745-24-24Z" fill="rgba(255,255,255,0.7)"/>
  <path d="M86 50l14 6-14 6v-12Z" fill="rgba(255,255,255,0.45)"/>
  <path d="M74 69c6 0 11 4 11 10 0 7-6 11-13 11-4 0-7-1-9-3" stroke="rgba(126,92,255,0.95)" stroke-width="6" stroke-linecap="round" fill="none"/>
</svg>
