<svg width="128" height="128" viewBox="0 0 128 128" fill="none" xmlns="http://www.w3.org/2000/svg">
  <defs>
    <linearGradient id="g1" x1="24" y1="20" x2="104" y2="112" gradientUnits="userSpaceOnUse">
      <stop stop-color="#7E5CFF"/>
      <stop offset="0.55" stop-color="#3B8DFF"/>
      <stop offset="1" stop-color="#00D6FF"/>
    </linearGradient>
    <linearGradient id="g2" x1="36" y1="38" x2="96" y2="96" gradientUnits="userSpaceOnUse">
      <stop stop-color="#FFFFFF" stop-opacity="0.85"/>
      <stop offset="1" stop-color="#FFFFFF" stop-opacity="0.20"/>
    </linearGradient>
    <filter id="shadow" x="-20" y="-20" width="168" height="168" color-interpolation-filters="sRGB">
      <feDropShadow dx="0" dy="18" stdDeviation="14" flood-color="#000" flood-opacity="0.55"/>
    </filter>
  </defs>

  <!-- badge -->
  <rect x="18" y="16" width="92" height="96" rx="26" fill="#0F1420"/>
  <rect x="18" y="16" width="92" height="96" rx="26" fill="url(#g1)" fill-opacity="0.14"/>
  <rect x="18" y="16" width="92" height="96" rx="26" stroke="rgba(255,255,255,0.12)"/>

  <!-- plane body -->
  <g filter="url(#shadow)">
    <path d="M36 74c0-13.255 10.745-24 24-24h20c6.627 0 12 5.373 12 12v6c0 6.627-5.373 12-12 12H60c-13.255 0-24-10.745-24-24Z" fill="url(#g2)"/>
    <path d="M86 50l14 6-14 6v-12Z" fill="rgba(255,255,255,0.55)"/>
    <path d="M44 62l-10 6 10 6V62Z" fill="rgba(255,255,255,0.35)"/>
    <rect x="58" y="56" width="20" height="4" rx="2" fill="rgba(0,0,0,0.25)"/>
  </g>

  <!-- claw peeking out (simplified lobster claw) -->
  <g>
    <path d="M74 69c6 0 11 4 11 10 0 7-6 11-13 11-4 0-7-1-9-3" stroke="rgba(255,255,255,0.65)" stroke-width="4" stroke-linecap="round"/>
    <path d="M66 79c2-3 6-5 10-5" stroke="rgba(255,255,255,0.45)" stroke-width="4" stroke-linecap="round"/>
    <path d="M60 83c0-6 4-10 10-10" stroke="rgba(126,92,255,0.85)" stroke-width="4" stroke-linecap="round"/>
  </g>
</svg>
